<svg xmlns="http://www.w3.org/2000/svg" width="1017" height="750" viewBox="0 0 1017 750">
  <defs>
    <style>
      .cls-1 {
        fill: #e60414;
        fill-rule: evenodd;
      }
    </style>
  </defs>
  <path id="形状_3" data-name="形状 3" class="cls-1" d="M356.325,7.839c-17.35,1.651-34.845,2.951-51.8,6.553a364.162,364.162,0,0,0-88.511,30.864c-28.4,14.287-54.932,31.466-78.957,52.56A387.1,387.1,0,0,0,76.38,164.55,362.223,362.223,0,0,0,23,275.763,342.184,342.184,0,0,0,9.5,354.911a377,377,0,0,0,8.891,102.033c9.074,39.728,24.75,76.508,45.7,111.176,17.88,29.551,40.434,55.355,66.075,78.326,14.616,13.108,29.809,26.058,46.522,36.141a521.867,521.867,0,0,0,70.051,35.946c38.473,16.009,79.14,24.057,120.865,25.3a398.368,398.368,0,0,0,51.3-1.638,472.061,472.061,0,0,0,55.147-8.8c33.532-7.375,65.1-20.13,95.1-37.007a376.937,376.937,0,0,0,72.524-52.6c22.833-21.237,44.809-43.426,67.053-65.255q48.217-47.287,96.284-94.661,51.291-50.521,102.572-101.083,39.724-39.339,79.041-79.049a74.36,74.36,0,0,0,21.448-44.053c4-34.2-5.95-63.7-34.87-84.674-28.629-20.747-59.317-23.347-91.825-9.953-18.4,7.6-30.846,22.71-44.605,35.778-32.943,31.239-64.933,63.487-97.284,95.313q-45.364,44.579-90.73,89.157Q586.5,446.705,524.3,508.117c-5.508,5.42-11.23,10.734-17.207,15.612-33.772,27.829-73.234,40.814-116.393,43.621-23.916,1.554-46.954-3.276-69.535-10.71-39.194-12.9-71.389-36.138-95.258-69.424-27.159-37.935-40.075-80.446-35.532-127.9,2.772-28.791,10.759-55.51,25.447-80.231,18.675-31.4,44.266-55.92,76.644-72.82,40.76-21.3,84.065-27,129.225-18.829a187.314,187.314,0,0,1,97.054,49.293c36.23,34.37,58.606,57.956,94.138,93.06,2.736,2.712,5.011,5.867,9.725,11.421,41.976-44.26,82.811-87.314,124.247-130.982-23.615-23.033-35.906-35.695-61.148-60.04-19.965-19.251-39.267-39.38-60.654-56.944C606.2,77.779,585.57,64.106,564.472,51.82a303.639,303.639,0,0,0-94.8-35.67c-25.074-4.843-50.69-7.433-76.161-9.745-3.2-.279-6.436-0.4-9.688-0.4-9.133,0-18.386.962-27.5,1.831M320.518,312.627c-35.255,36.958-31.088,92.288,2.494,125.054,36.965,36.067,91.994,31.779,123.754,1.157,37.158-35.815,33.484-96.951-2.916-127.79-16.013-16.359-38.147-24.286-60.3-24.286-23.339,0-46.74,8.807-63.028,25.865M823.176,536.933c38.075,37.994,86.836,77.566,141.743,44.307,34.051-20.625,47.381-51.161,43.111-89.579-2.23-20.008-16.145-41.5-30.159-55.293-2.637-2.59-26.867-24.96-26.519-25.31C908.134,453.5,865.745,495.12,823.176,536.933"/>
</svg>
